<?xml version="1.0" encoding="UTF-8" standalone="no"?>
<!DOCTYPE svg PUBLIC "-//W3C//DTD SVG 1.1//EN"
 "http://www.w3.org/Graphics/SVG/1.1/DTD/svg11.dtd">
<!-- Generated by graphviz version 2.36.0 (20140111.2315)
 -->
<!-- Title: hierarchy Pages: 1 -->
<svg width="281pt" height="132pt"
 viewBox="0.00 0.00 281.00 132.00" xmlns="http://www.w3.org/2000/svg" xmlns:xlink="http://www.w3.org/1999/xlink">
<g id="graph0" class="graph" transform="scale(1 1) rotate(0) translate(4 128)">
<title>hierarchy</title>
<polygon fill="white" stroke="none" points="-4,4 -4,-128 277,-128 277,4 -4,4"/>
<!-- A -->
<g id="node1" class="node"><title>A</title>
<g id="a_node1"><a xlink:href="./html_output.html#A" xlink:title="A" target="_parent">
<polygon fill="none" stroke="blue" points="194,-36 140,-36 140,-0 194,-0 194,-36"/>
<text text-anchor="middle" x="167" y="-14.3" font-family="Times,serif" font-size="14.00" fill="blue">A</text>
</a>
</g>
</g>
<!-- C -->
<g id="node2" class="node"><title>C</title>
<g id="a_node2"><a xlink:href="./C.svg" xlink:title="C" target="_parent">
<polygon fill="none" stroke="black" points="54,-124 0,-124 0,-88 54,-88 54,-124"/>
<text text-anchor="middle" x="27" y="-102.3" font-family="Times,serif" font-size="14.00">C</text>
</a>
</g>
</g>
<!-- C&#45;&gt;A -->
<g id="edge1" class="edge"><title>C&#45;&gt;A</title>
<path fill="none" stroke="black" d="M51.2777,-87.8897C66.0211,-77.7059 85.3436,-64.7219 103,-54 111.93,-48.577 121.751,-43.0144 130.962,-37.9654"/>
<polygon fill="none" stroke="black" points="132.791,-40.9552 139.913,-33.1117 129.454,-34.8017 132.791,-40.9552"/>
<text text-anchor="middle" x="113" y="-58.3" font-family="Times,serif" font-size="14.00">is&#45;a</text>
</g>
<!-- B -->
<g id="node3" class="node"><title>B</title>
<g id="a_node3"><a xlink:href="./B.svg" xlink:title="B" target="_parent">
<polygon fill="none" stroke="black" points="126,-124 72,-124 72,-88 126,-88 126,-124"/>
<text text-anchor="middle" x="99" y="-102.3" font-family="Times,serif" font-size="14.00">B</text>
</a>
</g>
</g>
<!-- B&#45;&gt;A -->
<g id="edge2" class="edge"><title>B&#45;&gt;A</title>
<path fill="none" stroke="black" d="M112.761,-87.5966C122.595,-75.1592 135.981,-58.2298 146.994,-44.3015"/>
<polygon fill="none" stroke="black" points="150.035,-46.099 153.492,-36.084 144.544,-41.7573 150.035,-46.099"/>
<text text-anchor="middle" x="150" y="-58.3" font-family="Times,serif" font-size="14.00">is&#45;a</text>
</g>
<!-- E -->
<g id="node4" class="node"><title>E</title>
<g id="a_node4"><a xlink:href="./E.svg" xlink:title="E" target="_parent">
<polygon fill="none" stroke="black" points="198,-124 144,-124 144,-88 198,-88 198,-124"/>
<text text-anchor="middle" x="171" y="-102.3" font-family="Times,serif" font-size="14.00">E</text>
</a>
</g>
</g>
<!-- E&#45;&gt;A -->
<g id="edge3" class="edge"><title>E&#45;&gt;A</title>
<path fill="none" stroke="black" d="M169.31,-87.9257C168.806,-82.2302 168.308,-75.8466 168,-70 167.591,-62.2176 167.345,-53.7592 167.198,-46.0092"/>
<polygon fill="none" stroke="black" points="170.698,-45.9585 167.053,-36.0101 163.698,-46.0596 170.698,-45.9585"/>
<text text-anchor="middle" x="178" y="-58.3" font-family="Times,serif" font-size="14.00">is&#45;a</text>
</g>
<!-- D -->
<g id="node5" class="node"><title>D</title>
<g id="a_node5"><a xlink:href="./D.svg" xlink:title="D" target="_parent">
<polygon fill="none" stroke="black" points="273,-124 219,-124 219,-88 273,-88 273,-124"/>
<text text-anchor="middle" x="246" y="-102.3" font-family="Times,serif" font-size="14.00">D</text>
</a>
</g>
</g>
<!-- D&#45;&gt;A -->
<g id="edge4" class="edge"><title>D&#45;&gt;A</title>
<path fill="none" stroke="black" d="M228.296,-87.8009C222.677,-82.2088 216.498,-75.918 211,-70 203.28,-61.6897 195.093,-52.355 187.901,-43.9653"/>
<polygon fill="none" stroke="black" points="190.505,-41.6241 181.359,-36.2754 185.173,-46.1599 190.505,-41.6241"/>
<text text-anchor="middle" x="221" y="-58.3" font-family="Times,serif" font-size="14.00">is&#45;a</text>
</g>
<!-- D&#45;&gt;A -->
<g id="edge5" class="edge"><title>D&#45;&gt;A</title>
<path fill="none" stroke="black" d="M241.677,-76.0904C239.456,-68.3157 236.092,-60.3199 231,-54 221.545,-42.2648 207.051,-33.8768 194.246,-28.26"/>
<polygon fill="black" stroke="black" points="241.689,-76.1435 246.905,-81.1236 244.313,-87.8531 239.098,-82.8731 241.689,-76.1435"/>
<text text-anchor="middle" x="253.5" y="-58.3" font-family="Times,serif" font-size="14.00">has&#45;a</text>
</g>
</g>
</svg>
