<?xml version="1.0" encoding="UTF-8" standalone="no"?>
<!DOCTYPE svg PUBLIC "-//W3C//DTD SVG 1.1//EN"
 "http://www.w3.org/Graphics/SVG/1.1/DTD/svg11.dtd">
<!-- Generated by graphviz version 2.36.0 (20140111.2315)
 -->
<!-- Title: hierarchy Pages: 1 -->
<svg width="141pt" height="220pt"
 viewBox="0.00 0.00 141.00 220.00" xmlns="http://www.w3.org/2000/svg" xmlns:xlink="http://www.w3.org/1999/xlink">
<g id="graph0" class="graph" transform="scale(1 1) rotate(0) translate(4 216)">
<title>hierarchy</title>
<polygon fill="white" stroke="none" points="-4,4 -4,-216 137,-216 137,4 -4,4"/>
<!-- B -->
<g id="node1" class="node"><title>B</title>
<g id="a_node1"><a xlink:href="./html_output.html#B" xlink:title="B" target="_parent">
<polygon fill="none" stroke="blue" points="97,-124 43,-124 43,-88 97,-88 97,-124"/>
<text text-anchor="middle" x="70" y="-102.3" font-family="Times,serif" font-size="14.00" fill="blue">B</text>
</a>
</g>
</g>
<!-- A -->
<g id="node2" class="node"><title>A</title>
<g id="a_node2"><a xlink:href="./A.svg" xlink:title="A" target="_parent">
<polygon fill="none" stroke="black" points="97,-36 43,-36 43,-0 97,-0 97,-36"/>
<text text-anchor="middle" x="70" y="-14.3" font-family="Times,serif" font-size="14.00">A</text>
</a>
</g>
</g>
<!-- B&#45;&gt;A -->
<g id="edge1" class="edge"><title>B&#45;&gt;A</title>
<path fill="none" stroke="black" d="M70,-87.5966C70,-75.7459 70,-59.8169 70,-46.2917"/>
<polygon fill="none" stroke="black" points="73.5001,-46.084 70,-36.084 66.5001,-46.084 73.5001,-46.084"/>
<text text-anchor="middle" x="80" y="-58.3" font-family="Times,serif" font-size="14.00">is&#45;a</text>
</g>
<!-- E -->
<g id="node3" class="node"><title>E</title>
<g id="a_node3"><a xlink:href="./E.svg" xlink:title="E" target="_parent">
<polygon fill="none" stroke="black" points="54,-212 0,-212 0,-176 54,-176 54,-212"/>
<text text-anchor="middle" x="27" y="-190.3" font-family="Times,serif" font-size="14.00">E</text>
</a>
</g>
</g>
<!-- E&#45;&gt;B -->
<g id="edge2" class="edge"><title>E&#45;&gt;B</title>
<path fill="none" stroke="black" d="M31.2264,-175.917C34.0974,-165.744 38.3936,-152.76 44,-142 45.6592,-138.816 47.5963,-135.609 49.6512,-132.499"/>
<polygon fill="none" stroke="black" points="52.6896,-134.265 55.6221,-124.084 46.9807,-130.214 52.6896,-134.265"/>
<text text-anchor="middle" x="54" y="-146.3" font-family="Times,serif" font-size="14.00">is&#45;a</text>
</g>
<!-- D -->
<g id="node4" class="node"><title>D</title>
<g id="a_node4"><a xlink:href="./D.svg" xlink:title="D" target="_parent">
<polygon fill="none" stroke="black" points="133,-212 79,-212 79,-176 133,-176 133,-212"/>
<text text-anchor="middle" x="106" y="-190.3" font-family="Times,serif" font-size="14.00">D</text>
</a>
</g>
</g>
<!-- D&#45;&gt;B -->
<g id="edge3" class="edge"><title>D&#45;&gt;B</title>
<path fill="none" stroke="black" d="M83.6612,-175.826C78.5679,-170.693 73.8276,-164.642 71,-158 67.8996,-150.718 66.8421,-142.304 66.779,-134.436"/>
<polygon fill="none" stroke="black" points="70.286,-134.343 67.2108,-124.204 63.2922,-134.048 70.286,-134.343"/>
<text text-anchor="middle" x="81" y="-146.3" font-family="Times,serif" font-size="14.00">is&#45;a</text>
</g>
<!-- D&#45;&gt;B -->
<g id="edge4" class="edge"><title>D&#45;&gt;B</title>
<path fill="none" stroke="black" d="M98.843,-163.951C96.6703,-156.654 94.0391,-148.931 91,-142 88.382,-136.029 84.9335,-129.83 81.5896,-124.337"/>
<polygon fill="black" stroke="black" points="98.869,-164.046 104.32,-168.767 102.058,-175.614 96.6073,-170.893 98.869,-164.046"/>
<text text-anchor="middle" x="110.5" y="-146.3" font-family="Times,serif" font-size="14.00">has&#45;a</text>
</g>
</g>
</svg>
