<?xml version="1.0" encoding="UTF-8" standalone="no"?>
<!DOCTYPE svg PUBLIC "-//W3C//DTD SVG 1.1//EN"
 "http://www.w3.org/Graphics/SVG/1.1/DTD/svg11.dtd">
<!-- Generated by graphviz version 2.36.0 (20140111.2315)
 -->
<!-- Title: hierarchy Pages: 1 -->
<svg width="134pt" height="220pt"
 viewBox="0.00 0.00 134.00 220.00" xmlns="http://www.w3.org/2000/svg" xmlns:xlink="http://www.w3.org/1999/xlink">
<g id="graph0" class="graph" transform="scale(1 1) rotate(0) translate(4 216)">
<title>hierarchy</title>
<polygon fill="white" stroke="none" points="-4,4 -4,-216 130,-216 130,4 -4,4"/>
<!-- C -->
<g id="node1" class="node"><title>C</title>
<g id="a_node1"><a xlink:href="./html_output.html#C" xlink:title="C" target="_parent">
<polygon fill="none" stroke="blue" points="90,-124 36,-124 36,-88 90,-88 90,-124"/>
<text text-anchor="middle" x="63" y="-102.3" font-family="Times,serif" font-size="14.00" fill="blue">C</text>
</a>
</g>
</g>
<!-- A -->
<g id="node2" class="node"><title>A</title>
<g id="a_node2"><a xlink:href="./A.svg" xlink:title="A" target="_parent">
<polygon fill="none" stroke="black" points="54,-36 0,-36 0,-0 54,-0 54,-36"/>
<text text-anchor="middle" x="27" y="-14.3" font-family="Times,serif" font-size="14.00">A</text>
</a>
</g>
</g>
<!-- C&#45;&gt;A -->
<g id="edge1" class="edge"><title>C&#45;&gt;A</title>
<path fill="none" stroke="black" d="M55.7149,-87.5966C50.6558,-75.5112 43.8214,-59.1844 38.0893,-45.4911"/>
<polygon fill="none" stroke="black" points="41.2414,-43.9569 34.1514,-36.084 34.7843,-46.6599 41.2414,-43.9569"/>
<text text-anchor="middle" x="59" y="-58.3" font-family="Times,serif" font-size="14.00">is&#45;a</text>
</g>
<!-- E -->
<g id="node3" class="node"><title>E</title>
<g id="a_node3"><a xlink:href="./E.svg" xlink:title="E" target="_parent">
<polygon fill="none" stroke="black" points="126,-36 72,-36 72,-0 126,-0 126,-36"/>
<text text-anchor="middle" x="99" y="-14.3" font-family="Times,serif" font-size="14.00">E</text>
</a>
</g>
</g>
<!-- C&#45;&gt;E -->
<g id="edge2" class="edge"><title>C&#45;&gt;E</title>
<path fill="none" stroke="black" d="M75.0864,-76.127C80.6516,-62.8324 87.0652,-47.5109 91.8486,-36.084"/>
<polygon fill="black" stroke="black" points="74.9189,-76.5273 76.2918,-83.6065 70.2851,-87.5966 68.9122,-80.5174 74.9189,-76.5273"/>
<text text-anchor="middle" x="98.5" y="-58.3" font-family="Times,serif" font-size="14.00">has&#45;a</text>
</g>
<!-- D -->
<g id="node4" class="node"><title>D</title>
<g id="a_node4"><a xlink:href="./D.svg" xlink:title="D" target="_parent">
<polygon fill="none" stroke="black" points="90,-212 36,-212 36,-176 90,-176 90,-212"/>
<text text-anchor="middle" x="63" y="-190.3" font-family="Times,serif" font-size="14.00">D</text>
</a>
</g>
</g>
<!-- D&#45;&gt;C -->
<g id="edge3" class="edge"><title>D&#45;&gt;C</title>
<path fill="none" stroke="black" d="M63,-163.311C63,-150.209 63,-135.278 63,-124.084"/>
<polygon fill="black" stroke="black" points="63.0001,-163.597 67,-169.597 63,-175.597 59,-169.597 63.0001,-163.597"/>
<text text-anchor="middle" x="77.5" y="-146.3" font-family="Times,serif" font-size="14.00">has&#45;a</text>
</g>
</g>
</svg>
