<?xml version="1.0" encoding="UTF-8" standalone="no"?>
<!DOCTYPE svg PUBLIC "-//W3C//DTD SVG 1.1//EN"
 "http://www.w3.org/Graphics/SVG/1.1/DTD/svg11.dtd">
<!-- Generated by graphviz version 2.36.0 (20140111.2315)
 -->
<!-- Title: hierarchy Pages: 1 -->
<svg width="175pt" height="264pt"
 viewBox="0.00 0.00 175.00 264.00" xmlns="http://www.w3.org/2000/svg" xmlns:xlink="http://www.w3.org/1999/xlink">
<g id="graph0" class="graph" transform="scale(1 1) rotate(0) translate(4 260)">
<title>hierarchy</title>
<polygon fill="white" stroke="none" points="-4,4 -4,-260 171,-260 171,4 -4,4"/>
<!-- MAIN -->
<g id="node1" class="node"><title>MAIN</title>
<g id="a_node1"><a xlink:href="./MAIN.svg" xlink:title="MAIN" target="_parent">
<polygon fill="none" stroke="black" points="54,-256 0,-256 0,-220 54,-220 54,-256"/>
<text text-anchor="middle" x="27" y="-234.3" font-family="Times,serif" font-size="14.00">MAIN</text>
</a>
</g>
</g>
<!-- example_function_2 -->
<g id="node2" class="node"><title>example_function_2</title>
<g id="a_node2"><a xlink:href="./example_function_2.svg" xlink:title="example_function_2" target="_parent">
<polygon fill="none" stroke="black" points="167,-36 39,-36 39,-0 167,-0 167,-36"/>
<text text-anchor="middle" x="103" y="-14.3" font-family="Times,serif" font-size="14.00">example_function_2</text>
</a>
</g>
</g>
<!-- __init__ -->
<g id="node3" class="node"><title>__init__</title>
<g id="a_node3"><a xlink:href="./__init__.svg" xlink:title="__init__" target="_parent">
<polygon fill="none" stroke="black" points="133.5,-256 72.5,-256 72.5,-220 133.5,-220 133.5,-256"/>
<text text-anchor="middle" x="103" y="-234.3" font-family="Times,serif" font-size="14.00">__init__</text>
</a>
</g>
</g>
<!-- example_function_1 -->
<g id="node4" class="node"><title>example_function_1</title>
<g id="a_node4"><a xlink:href="./example_function_1.svg" xlink:title="example_function_1" target="_parent">
<polygon fill="none" stroke="black" points="167,-146 39,-146 39,-110 167,-110 167,-146"/>
<text text-anchor="middle" x="103" y="-124.3" font-family="Times,serif" font-size="14.00">example_function_1</text>
</a>
</g>
</g>
<!-- __init__&#45;&gt;example_function_1 -->
<g id="edge1" class="edge"><title>__init__&#45;&gt;example_function_1</title>
<path fill="none" stroke="black" d="M103,-219.648C103,-202.564 103,-176.215 103,-156.319"/>
<polygon fill="none" stroke="black" points="106.5,-156.309 103,-146.309 99.5001,-156.309 106.5,-156.309"/>
</g>
<!-- example_function_1&#45;&gt;example_function_2 -->
<g id="edge2" class="edge"><title>example_function_1&#45;&gt;example_function_2</title>
<path fill="none" stroke="black" d="M103,-109.648C103,-92.5643 103,-66.215 103,-46.3195"/>
<polygon fill="none" stroke="black" points="106.5,-46.309 103,-36.309 99.5001,-46.309 106.5,-46.309"/>
</g>
</g>
</svg>
