<?xml version="1.0" encoding="UTF-8" standalone="no"?>
<!DOCTYPE svg PUBLIC "-//W3C//DTD SVG 1.1//EN"
 "http://www.w3.org/Graphics/SVG/1.1/DTD/svg11.dtd">
<!-- Generated by graphviz version 2.36.0 (20140111.2315)
 -->
<!-- Title: hierarchy Pages: 1 -->
<svg width="229pt" height="220pt"
 viewBox="0.00 0.00 229.00 220.00" xmlns="http://www.w3.org/2000/svg" xmlns:xlink="http://www.w3.org/1999/xlink">
<g id="graph0" class="graph" transform="scale(1 1) rotate(0) translate(4 216)">
<title>hierarchy</title>
<polygon fill="white" stroke="none" points="-4,4 -4,-216 225,-216 225,4 -4,4"/>
<!-- D -->
<g id="node1" class="node"><title>D</title>
<g id="a_node1"><a xlink:href="./html_output.html#D" xlink:title="D" target="_parent">
<polygon fill="none" stroke="blue" points="126,-124 72,-124 72,-88 126,-88 126,-124"/>
<text text-anchor="middle" x="99" y="-102.3" font-family="Times,serif" font-size="14.00" fill="blue">D</text>
</a>
</g>
</g>
<!-- A -->
<g id="node2" class="node"><title>A</title>
<g id="a_node2"><a xlink:href="./A.svg" xlink:title="A" target="_parent">
<polygon fill="none" stroke="black" points="54,-36 0,-36 0,-0 54,-0 54,-36"/>
<text text-anchor="middle" x="27" y="-14.3" font-family="Times,serif" font-size="14.00">A</text>
</a>
</g>
</g>
<!-- D&#45;&gt;A -->
<g id="edge1" class="edge"><title>D&#45;&gt;A</title>
<path fill="none" stroke="black" d="M71.6633,-103.001C49.6142,-99.7813 19.9034,-91.4521 5,-70 -0.25246,-62.4396 1.47223,-53.4253 5.70064,-45.0931"/>
<polygon fill="none" stroke="black" points="8.78044,-46.7672 11.0599,-36.4205 2.82566,-43.0874 8.78044,-46.7672"/>
<text text-anchor="middle" x="15" y="-58.3" font-family="Times,serif" font-size="14.00">is&#45;a</text>
</g>
<!-- D&#45;&gt;A -->
<g id="edge3" class="edge"><title>D&#45;&gt;A</title>
<path fill="none" stroke="black" d="M74.0112,-79.0865C71.2628,-76.0633 68.5419,-72.9909 66,-70 56.7606,-59.1285 47.0106,-46.3785 39.5705,-36.3464"/>
<polygon fill="black" stroke="black" points="74.0152,-79.0908 81.0305,-80.76 82.1879,-87.8776 75.1726,-86.2084 74.0152,-79.0908"/>
<text text-anchor="middle" x="80.5" y="-58.3" font-family="Times,serif" font-size="14.00">has&#45;a</text>
</g>
<!-- B -->
<g id="node3" class="node"><title>B</title>
<g id="a_node3"><a xlink:href="./B.svg" xlink:title="B" target="_parent">
<polygon fill="none" stroke="black" points="137,-36 83,-36 83,-0 137,-0 137,-36"/>
<text text-anchor="middle" x="110" y="-14.3" font-family="Times,serif" font-size="14.00">B</text>
</a>
</g>
</g>
<!-- D&#45;&gt;B -->
<g id="edge2" class="edge"><title>D&#45;&gt;B</title>
<path fill="none" stroke="black" d="M98.2383,-87.9075C98.0678,-77.96 98.3178,-65.21 100,-54 100.386,-51.4299 100.906,-48.7823 101.506,-46.1484"/>
<polygon fill="none" stroke="black" points="104.951,-46.8129 104.114,-36.2512 98.1817,-45.0296 104.951,-46.8129"/>
<text text-anchor="middle" x="110" y="-58.3" font-family="Times,serif" font-size="14.00">is&#45;a</text>
</g>
<!-- D&#45;&gt;B -->
<g id="edge5" class="edge"><title>D&#45;&gt;B</title>
<path fill="none" stroke="black" d="M117.558,-76.8761C118.527,-74.6103 119.362,-72.3048 120,-70 123.083,-58.8699 120.583,-46.1199 117.312,-36.1524"/>
<polygon fill="black" stroke="black" points="117.461,-77.0601 118.219,-84.2313 111.891,-87.6889 111.133,-80.5177 117.461,-77.0601"/>
<text text-anchor="middle" x="135.5" y="-58.3" font-family="Times,serif" font-size="14.00">has&#45;a</text>
</g>
<!-- C -->
<g id="node4" class="node"><title>C</title>
<g id="a_node4"><a xlink:href="./C.svg" xlink:title="C" target="_parent">
<polygon fill="none" stroke="black" points="221,-36 167,-36 167,-0 221,-0 221,-36"/>
<text text-anchor="middle" x="194" y="-14.3" font-family="Times,serif" font-size="14.00">C</text>
</a>
</g>
</g>
<!-- D&#45;&gt;C -->
<g id="edge4" class="edge"><title>D&#45;&gt;C</title>
<path fill="none" stroke="black" d="M136.33,-83.6889C142.499,-79.4924 148.627,-74.8687 154,-70 165.007,-60.0261 175.297,-46.7785 182.684,-36.2849"/>
<polygon fill="black" stroke="black" points="136.126,-83.8202 133.247,-90.4313 126.036,-90.3158 128.916,-83.7047 136.126,-83.8202"/>
<text text-anchor="middle" x="182.5" y="-58.3" font-family="Times,serif" font-size="14.00">has&#45;a</text>
</g>
<!-- E -->
<g id="node5" class="node"><title>E</title>
<g id="a_node5"><a xlink:href="./E.svg" xlink:title="E" target="_parent">
<polygon fill="none" stroke="black" points="126,-212 72,-212 72,-176 126,-176 126,-212"/>
<text text-anchor="middle" x="99" y="-190.3" font-family="Times,serif" font-size="14.00">E</text>
</a>
</g>
</g>
<!-- E&#45;&gt;D -->
<g id="edge6" class="edge"><title>E&#45;&gt;D</title>
<path fill="none" stroke="black" d="M99,-175.597C99,-163.746 99,-147.817 99,-134.292"/>
<polygon fill="none" stroke="black" points="102.5,-134.084 99,-124.084 95.5001,-134.084 102.5,-134.084"/>
<text text-anchor="middle" x="109" y="-146.3" font-family="Times,serif" font-size="14.00">is&#45;a</text>
</g>
</g>
</svg>
