<?xml version="1.0" encoding="UTF-8" standalone="no"?>
<!DOCTYPE svg PUBLIC "-//W3C//DTD SVG 1.1//EN"
 "http://www.w3.org/Graphics/SVG/1.1/DTD/svg11.dtd">
<!-- Generated by graphviz version 2.36.0 (20140111.2315)
 -->
<!-- Title: hierarchy Pages: 1 -->
<svg width="206pt" height="220pt"
 viewBox="0.00 0.00 206.00 220.00" xmlns="http://www.w3.org/2000/svg" xmlns:xlink="http://www.w3.org/1999/xlink">
<g id="graph0" class="graph" transform="scale(1 1) rotate(0) translate(4 216)">
<title>hierarchy</title>
<polygon fill="white" stroke="none" points="-4,4 -4,-216 202,-216 202,4 -4,4"/>
<!-- E -->
<g id="node1" class="node"><title>E</title>
<g id="a_node1"><a xlink:href="./html_output.html#E" xlink:title="E" target="_parent">
<polygon fill="none" stroke="blue" points="126,-124 72,-124 72,-88 126,-88 126,-124"/>
<text text-anchor="middle" x="99" y="-102.3" font-family="Times,serif" font-size="14.00" fill="blue">E</text>
</a>
</g>
</g>
<!-- A -->
<g id="node2" class="node"><title>A</title>
<g id="a_node2"><a xlink:href="./A.svg" xlink:title="A" target="_parent">
<polygon fill="none" stroke="black" points="54,-36 0,-36 0,-0 54,-0 54,-36"/>
<text text-anchor="middle" x="27" y="-14.3" font-family="Times,serif" font-size="14.00">A</text>
</a>
</g>
</g>
<!-- E&#45;&gt;A -->
<g id="edge1" class="edge"><title>E&#45;&gt;A</title>
<path fill="none" stroke="black" d="M84.4297,-87.5966C73.9188,-75.0419 59.5758,-57.9099 47.8533,-43.9081"/>
<polygon fill="none" stroke="black" points="50.406,-41.5048 41.3029,-36.084 45.0386,-45.9984 50.406,-41.5048"/>
<text text-anchor="middle" x="80" y="-58.3" font-family="Times,serif" font-size="14.00">is&#45;a</text>
</g>
<!-- B -->
<g id="node3" class="node"><title>B</title>
<g id="a_node3"><a xlink:href="./B.svg" xlink:title="B" target="_parent">
<polygon fill="none" stroke="black" points="126,-36 72,-36 72,-0 126,-0 126,-36"/>
<text text-anchor="middle" x="99" y="-14.3" font-family="Times,serif" font-size="14.00">B</text>
</a>
</g>
</g>
<!-- E&#45;&gt;B -->
<g id="edge2" class="edge"><title>E&#45;&gt;B</title>
<path fill="none" stroke="black" d="M99,-87.5966C99,-75.7459 99,-59.8169 99,-46.2917"/>
<polygon fill="none" stroke="black" points="102.5,-46.084 99,-36.084 95.5001,-46.084 102.5,-46.084"/>
<text text-anchor="middle" x="109" y="-58.3" font-family="Times,serif" font-size="14.00">is&#45;a</text>
</g>
<!-- D -->
<g id="node4" class="node"><title>D</title>
<g id="a_node4"><a xlink:href="./D.svg" xlink:title="D" target="_parent">
<polygon fill="none" stroke="black" points="198,-36 144,-36 144,-0 198,-0 198,-36"/>
<text text-anchor="middle" x="171" y="-14.3" font-family="Times,serif" font-size="14.00">D</text>
</a>
</g>
</g>
<!-- E&#45;&gt;D -->
<g id="edge3" class="edge"><title>E&#45;&gt;D</title>
<path fill="none" stroke="black" d="M113.57,-87.5966C124.081,-75.0419 138.424,-57.9099 150.147,-43.9081"/>
<polygon fill="none" stroke="black" points="152.961,-45.9984 156.697,-36.084 147.594,-41.5048 152.961,-45.9984"/>
<text text-anchor="middle" x="151" y="-58.3" font-family="Times,serif" font-size="14.00">is&#45;a</text>
</g>
<!-- C -->
<g id="node5" class="node"><title>C</title>
<g id="a_node5"><a xlink:href="./C.svg" xlink:title="C" target="_parent">
<polygon fill="none" stroke="black" points="126,-212 72,-212 72,-176 126,-176 126,-212"/>
<text text-anchor="middle" x="99" y="-190.3" font-family="Times,serif" font-size="14.00">C</text>
</a>
</g>
</g>
<!-- C&#45;&gt;E -->
<g id="edge4" class="edge"><title>C&#45;&gt;E</title>
<path fill="none" stroke="black" d="M99,-163.311C99,-150.209 99,-135.278 99,-124.084"/>
<polygon fill="black" stroke="black" points="99.0001,-163.597 103,-169.597 99,-175.597 95,-169.597 99.0001,-163.597"/>
<text text-anchor="middle" x="113.5" y="-146.3" font-family="Times,serif" font-size="14.00">has&#45;a</text>
</g>
</g>
</svg>
