<?xml version="1.0" encoding="UTF-8" standalone="no"?>
<!DOCTYPE svg PUBLIC "-//W3C//DTD SVG 1.1//EN"
 "http://www.w3.org/Graphics/SVG/1.1/DTD/svg11.dtd">
<!-- Generated by graphviz version 2.36.0 (20140111.2315)
 -->
<!-- Title: hierarchy Pages: 1 -->
<svg width="348pt" height="556pt"
 viewBox="0.00 0.00 348.00 556.00" xmlns="http://www.w3.org/2000/svg" xmlns:xlink="http://www.w3.org/1999/xlink">
<g id="graph0" class="graph" transform="scale(1 1) rotate(0) translate(4 552)">
<title>hierarchy</title>
<polygon fill="white" stroke="none" points="-4,4 -4,-552 344,-552 344,4 -4,4"/>
<!-- A -->
<g id="node1" class="node"><title>A</title>
<g id="a_node1"><a xlink:href="./A.svg" xlink:title="A" target="_parent">
<polygon fill="none" stroke="black" points="169,-36 115,-36 115,-0 169,-0 169,-36"/>
<text text-anchor="middle" x="142" y="-14.3" font-family="Times,serif" font-size="14.00">A</text>
</a>
</g>
</g>
<!-- C -->
<g id="node2" class="node"><title>C</title>
<g id="a_node2"><a xlink:href="./C.svg" xlink:title="C" target="_parent">
<polygon fill="none" stroke="black" points="123,-548 69,-548 69,-512 123,-512 123,-548"/>
<text text-anchor="middle" x="96" y="-526.3" font-family="Times,serif" font-size="14.00">C</text>
</a>
</g>
</g>
<!-- C&#45;&gt;A -->
<g id="edge1" class="edge"><title>C&#45;&gt;A</title>
<path fill="none" stroke="black" d="M68.747,-523.611C40.3652,-516.227 0,-499.935 0,-467 0,-467 0,-467 0,-81 0,-35.2465 62.6823,-22.9218 104.755,-19.8025"/>
<polygon fill="none" stroke="black" points="105.183,-23.2832 114.957,-19.193 104.766,-16.2957 105.183,-23.2832"/>
<text text-anchor="middle" x="10" y="-270.3" font-family="Times,serif" font-size="14.00">is&#45;a</text>
</g>
<!-- E -->
<g id="node4" class="node"><title>E</title>
<g id="a_node4"><a xlink:href="./E.svg" xlink:title="E" target="_parent">
<polygon fill="none" stroke="black" points="123,-420 69,-420 69,-384 123,-384 123,-420"/>
<text text-anchor="middle" x="96" y="-398.3" font-family="Times,serif" font-size="14.00">E</text>
</a>
</g>
</g>
<!-- C&#45;&gt;E -->
<g id="edge8" class="edge"><title>C&#45;&gt;E</title>
<path fill="none" stroke="black" d="M96,-499.502C96,-474.799 96,-440.405 96,-420.047"/>
<polygon fill="black" stroke="black" points="96.0001,-499.744 100,-505.744 96,-511.744 92,-505.744 96.0001,-499.744"/>
<text text-anchor="middle" x="110.5" y="-462.3" font-family="Times,serif" font-size="14.00">has&#45;a</text>
</g>
<!-- B -->
<g id="node3" class="node"><title>B</title>
<g id="a_node3"><a xlink:href="./B.svg" xlink:title="B" target="_parent">
<polygon fill="none" stroke="black" points="169,-164 115,-164 115,-128 169,-128 169,-164"/>
<text text-anchor="middle" x="142" y="-142.3" font-family="Times,serif" font-size="14.00">B</text>
</a>
</g>
</g>
<!-- B&#45;&gt;A -->
<g id="edge2" class="edge"><title>B&#45;&gt;A</title>
<path fill="none" stroke="black" d="M142,-127.744C142,-106.726 142,-70.9691 142,-46.2252"/>
<polygon fill="none" stroke="black" points="145.5,-46.0471 142,-36.0472 138.5,-46.0472 145.5,-46.0471"/>
<text text-anchor="middle" x="152" y="-78.3" font-family="Times,serif" font-size="14.00">is&#45;a</text>
</g>
<!-- E&#45;&gt;A -->
<g id="edge3" class="edge"><title>E&#45;&gt;A</title>
<path fill="none" stroke="black" d="M72.8436,-383.845C60.5691,-372.65 48,-356.833 48,-339 48,-339 48,-339 48,-81 48,-52.3973 78.7035,-36.2373 105.015,-27.6401"/>
<polygon fill="none" stroke="black" points="106.236,-30.928 114.811,-24.7053 104.227,-24.2225 106.236,-30.928"/>
<text text-anchor="middle" x="58" y="-206.3" font-family="Times,serif" font-size="14.00">is&#45;a</text>
</g>
<!-- E&#45;&gt;B -->
<g id="edge4" class="edge"><title>E&#45;&gt;B</title>
<path fill="none" stroke="black" d="M96,-383.895C96,-371.444 96,-354.177 96,-339 96,-339 96,-339 96,-209 96,-194.902 103.766,-181.922 112.916,-171.521"/>
<polygon fill="none" stroke="black" points="115.656,-173.723 120.078,-164.095 110.617,-168.864 115.656,-173.723"/>
<text text-anchor="middle" x="106" y="-270.3" font-family="Times,serif" font-size="14.00">is&#45;a</text>
</g>
<!-- D -->
<g id="node5" class="node"><title>D</title>
<g id="a_node5"><a xlink:href="./D.svg" xlink:title="D" target="_parent">
<polygon fill="none" stroke="black" points="224,-292 170,-292 170,-256 224,-256 224,-292"/>
<text text-anchor="middle" x="197" y="-270.3" font-family="Times,serif" font-size="14.00">D</text>
</a>
</g>
</g>
<!-- E&#45;&gt;D -->
<g id="edge5" class="edge"><title>E&#45;&gt;D</title>
<path fill="none" stroke="black" d="M109.832,-383.744C127.209,-362.066 157.153,-324.71 177.018,-299.928"/>
<polygon fill="none" stroke="black" points="179.812,-302.039 183.335,-292.047 174.35,-297.661 179.812,-302.039"/>
<text text-anchor="middle" x="161" y="-334.3" font-family="Times,serif" font-size="14.00">is&#45;a</text>
</g>
<!-- D&#45;&gt;A -->
<g id="edge6" class="edge"><title>D&#45;&gt;A</title>
<path fill="none" stroke="black" d="M224.302,-257.392C239.345,-246.572 255,-230.604 255,-211 255,-211 255,-211 255,-81 255,-45.6129 211.879,-30.2865 178.912,-23.74"/>
<polygon fill="none" stroke="black" points="179.527,-20.2944 169.066,-21.9777 178.293,-27.1849 179.527,-20.2944"/>
<text text-anchor="middle" x="265" y="-142.3" font-family="Times,serif" font-size="14.00">is&#45;a</text>
</g>
<!-- D&#45;&gt;A -->
<g id="edge9" class="edge"><title>D&#45;&gt;A</title>
<path fill="none" stroke="black" d="M236.12,-267.992C269.114,-261.318 311,-245.96 311,-211 311,-211 311,-211 311,-81 311,-51.1539 216.925,-31.3311 169.153,-23.189"/>
<polygon fill="black" stroke="black" points="235.831,-268.044 230.625,-273.034 224.016,-270.148 229.222,-265.158 235.831,-268.044"/>
<text text-anchor="middle" x="325.5" y="-142.3" font-family="Times,serif" font-size="14.00">has&#45;a</text>
</g>
<!-- D&#45;&gt;C -->
<g id="edge10" class="edge"><title>D&#45;&gt;C</title>
<path fill="none" stroke="black" d="M196.334,-304.285C196.15,-314.622 196,-326.327 196,-337 196,-467 196,-467 196,-467 196,-501.42 152.677,-517.389 123.061,-524.285"/>
<polygon fill="black" stroke="black" points="196.337,-304.102 192.457,-298.024 196.576,-292.104 200.456,-298.183 196.337,-304.102"/>
<text text-anchor="middle" x="210.5" y="-398.3" font-family="Times,serif" font-size="14.00">has&#45;a</text>
</g>
<!-- D&#45;&gt;B -->
<g id="edge7" class="edge"><title>D&#45;&gt;B</title>
<path fill="none" stroke="black" d="M181.137,-255.951C172.433,-245.684 162.183,-231.934 156,-218 149.928,-204.317 146.476,-187.991 144.52,-174.446"/>
<polygon fill="none" stroke="black" points="147.963,-173.772 143.25,-164.283 141.017,-174.64 147.963,-173.772"/>
<text text-anchor="middle" x="166" y="-206.3" font-family="Times,serif" font-size="14.00">is&#45;a</text>
</g>
<!-- D&#45;&gt;B -->
<g id="edge11" class="edge"><title>D&#45;&gt;B</title>
<path fill="none" stroke="black" d="M190.347,-244.194C186.839,-231.036 182.006,-215.427 176,-202 170.041,-188.679 161.366,-174.704 154.271,-164.174"/>
<polygon fill="black" stroke="black" points="190.366,-244.271 195.712,-249.112 193.3,-255.907 187.954,-251.067 190.366,-244.271"/>
<text text-anchor="middle" x="196.5" y="-206.3" font-family="Times,serif" font-size="14.00">has&#45;a</text>
</g>
</g>
</svg>
